<?xml version="1.0" encoding="UTF-8"?>
<svg id="Layer_1" data-name="Layer 1" xmlns="http://www.w3.org/2000/svg" viewBox="0 0 417.69 325.1">
  <defs>
    <style>
      .cls-1 {
        stroke-width: 6px;
      }

      .cls-1, .cls-2, .cls-3 {
        fill: #fff;
      }

      .cls-1, .cls-3 {
        stroke: #fff;
      }

      .cls-3 {
        stroke-miterlimit: 10;
      }
    </style>
  </defs>
  <path class="cls-2" d="M206.78,82.91c12.13-15.17,13.65-41.96,12.64-51.57s-5.56-11.12-7.58-11.12-8.09-.51-12.13-2.53-3.54-7.58-12.64-8.09-20.73,8.59-24.27,11.63c-4.55,2.53-12.64,4.55-15.17,10.62s4.04,17.69,5.06,20.22,10.11,15.17,13.14,19.72c-7.58-6.07-18.71-17.19-22.75-20.22-4.04-3.03-14.66-5.56-20.73,5.06-14.16,2.53-21.74,9.61-22.24,13.65s3.54,11.12,7.58,15.17c-3.03,7.08-5.06,11.12-4.04,16.68s6.57,11.63,18.71,12.64c12.13,1.01,37.92-3.54,43.98-5.56-12.64,5.06-30.33,15.17-34.88,18.71s-16.68,19.72,4.04,28.31c0,10.11,6.57,19.21,19.21,16.18,4.04,12.13,11.12,17.19,23.26,11.12,8.09,9.61,43.98,26.79,38.93-40.95,17.69,37.41,28.82,33.87,30.33,33.37s7.58-2.53,11.12-1.52,18.71,4.55,27.3-11.12c-3.03-8.59-4.04-8.09-3.03-13.14s3.03-7.58,3.03-14.66-8.09-13.65-22.24-17.19-20.73-5.06-27.81-9.61c13.14,3.03,66.73,12.64,56.62-22.75,11.63-9.1-1.52-22.75-12.64-23.76.51-10.62-20.22-33.37-48.53,16.68,11.63-6.07,21.23-6.07,21.23-6.07,0,0-18.2,7.08-23.76,11.63,10.11-1.01,24.27-7.08,35.39-4.04-9.61,3.54-34.88,7.58-39.94,12.13,8.09,2.53,23.76-3.03,33.37,2.53-15.17-.51-36.91.51-42.97,9.1,7.08,4.55,30.33,10.11,33.87,22.24-13.14-10.11-27.81-15.17-34.88-16.18,3.03,4.55,17.69,15.67,19.21,23.26-12.13-9.61-12.64-16.18-27.3-22.24-5.56,5.56-6.57,20.22-7.08,30.33-3.54-10.62-2.53-21.23-1.52-29.83-6.57,3.03-19.21,25.28-21.74,32.36-.51-9.61,9.61-29.32,16.68-33.87-9.61,0-23.26,13.14-28.82,19.21,0-11.12,25.78-24.27,29.83-26.29-7.58-3.54-40.95-15.67-45-20.73,10.62,1.01,26.79,10.62,38.93,10.62-3.54-7.58-27.3-16.18-34.38-18.2,13.65-3.03,34.38,10.11,38.93,15.17,1.01-8.09-8.59-19.72-14.16-26.79,10.11,6.07,16.18,16.68,18.71,20.73,0-9.1-8.59-26.29-15.17-34.38,11.63,7.08,18.2,22.24,19.21,30.84,3.03-9.61,1.01-23.76-5.56-36.91,12.13,8.59,11.12,24.27,12.64,39.43Z"/>
  <path class="cls-3" d="M248.24,17.19s-19.72,55.61-45.5,79.88c-6.07,6.07-3.54,14.16,7.58,4.04s38.42-64.21,37.92-83.92Z"/>
  <path class="cls-2" d="M258.85,26.79c0,2.51-2.04,4.55-4.55,4.55s-3.54-2.04-3.54-4.55,1.53-3.03,4.04-3.03,4.04.52,4.04,3.03Z"/>
  <ellipse class="cls-2" cx="252.28" cy="4.55" rx="4.04" ry="4.55"/>
  <ellipse class="cls-2" cx="232.82" cy="32.1" rx="4.3" ry="3.79"/>
  <circle class="cls-2" cx="253.04" cy="38.17" r="3.79"/>
  <circle class="cls-2" cx="237.62" cy="22.24" r="4.04"/>
  <ellipse class="cls-2" cx="242.17" cy="11.63" rx="4.55" ry="3.54"/>
  <circle class="cls-2" cx="256.83" cy="15.67" r="4.04"/>
  <path class="cls-2" d="M34.89,235.94c-1.52-5.76-3.54-12.23-11.83-12.23-7.48,0-10.41,5.56-10.41,10.21,0,7.08,4.65,10.11,11.73,13.75,6.77,3.34,16.28,7.38,16.28,18.2,0,10.01-8.29,17.59-20.42,17.59-3.94,0-6.98-.81-9.2-1.52-2.12-.61-3.54-1.42-4.35-1.82-.81-2.12-1.92-9.61-2.53-14.36l2.93-.71c1.52,5.66,5.26,14.86,14.86,14.86,7.28,0,11.43-4.45,11.43-11.32s-5.26-10.21-12.23-13.95c-5.46-2.93-15.27-7.08-15.27-17.8,0-8.9,7.08-16.48,18.91-16.48,3.64,0,7.28.71,11.63,2.12.3,3.34.81,6.88,1.52,13.04l-3.03.4Z"/>
  <path class="cls-2" d="M73.01,282.25v-2.63c5.56-.51,6.47-1.11,6.47-7.28v-15.17c0-7.79-2.93-11.83-9.61-11.83-3.94,0-7.79,2.02-10.41,5.16v21.84c0,6.07.51,6.77,6.47,7.28v2.63h-19.82v-2.63c5.86-.51,6.77-1.11,6.77-7.28v-43.98c0-5.86-.3-6.37-6.77-6.88v-2.43c4.55-.71,10.01-2.22,13.35-3.34v31.14c3.34-3.24,8.49-6.77,13.55-6.77,7.58,0,13.04,4.85,13.04,15.98v16.38c0,6.17.71,6.67,6.37,7.18v2.63h-19.41Z"/>
  <path class="cls-2" d="M127.5,283.36c-1.11,0-3.13-.81-4.04-1.72-1.31-1.31-1.92-2.63-2.22-4.25-3.94,2.53-8.29,5.97-11.53,5.97-6.37,0-11.02-5.46-11.02-11.53,0-4.45,2.43-7.68,7.79-9.4,5.66-1.92,12.54-4.55,14.56-6.07v-1.31c0-6.88-3.44-10.72-8.29-10.72-2.02,0-3.54.81-4.45,1.92-1.21,1.31-1.92,3.24-2.83,5.97-.3,1.42-1.31,2.02-2.63,2.02-1.52,0-3.84-1.72-3.84-3.94,0-1.31,1.21-2.43,3.03-3.74,2.33-1.72,8.29-5.36,13.75-6.47,2.73,0,5.66.81,7.58,2.53,3.03,2.73,4.04,6.47,4.04,11.22v17.69c0,4.25,1.62,5.66,3.34,5.66,1.11,0,2.53-.51,3.44-1.11l1.01,2.73-7.68,4.55ZM121.03,259.7l-9.2,4.15c-3.84,1.62-5.97,3.44-5.97,6.88,0,4.75,3.84,7.08,6.88,7.08,2.63,0,6.47-2.02,8.29-3.74v-14.36Z"/>
  <path class="cls-2" d="M164.91,282.25v-2.63c5.76-.61,6.47-1.42,6.47-7.68v-15.47c0-6.57-2.22-11.02-8.9-11.02-4.04,0-7.99,2.53-10.92,5.26v21.54c0,6.57.51,6.77,6.47,7.38v2.63h-19.92v-2.63c6.37-.61,6.88-1.21,6.88-7.28v-19.01c0-6.07-.61-6.47-5.76-7.28v-2.43c4.45-.81,8.7-1.92,12.34-3.84v7.48c1.82-1.42,3.84-2.73,6.27-4.25,2.53-1.72,5.26-2.93,7.99-2.93,7.38,0,12.13,5.16,12.13,14.16v18c0,6.47.51,6.77,6.17,7.38v2.63h-19.21Z"/>
  <path class="cls-2" d="M229.83,241.8c-.91,1.52-2.83,4.04-4.25,4.75l-5.26-.3c1.72,2.02,2.73,5.16,2.73,8.39,0,10.11-8.29,15.07-16.38,15.07-1.42,0-3.13-.2-4.75-.51-1.42,1.01-3.03,2.83-3.03,4.15,0,1.82,1.52,3.54,5.66,3.54,3.74,0,7.18-.1,10.31-.1,5.97,0,13.45,1.82,13.45,10.92s-10.82,18-23.15,18c-10.21,0-16.08-5.56-16.18-11.12,0-1.92.71-3.94,2.22-5.36,1.72-1.82,5.46-4.95,7.58-6.57-3.24-1.01-5.66-3.13-6.88-5.06-.71-1.31-1.01-2.93-.91-3.74,3.44-1.31,6.47-3.84,7.89-5.76-3.74-1.72-7.89-5.86-7.89-12.44,0-10.62,9.61-15.57,16.78-15.57,2.93,0,6.17.81,8.8,2.33,4.45-.3,8.9-.81,12.64-1.42l.61.81ZM200.61,284.98c-2.73,2.12-4.55,4.85-4.55,7.58,0,5.16,5.46,8.19,12.34,8.19,9.2,0,13.95-4.35,13.95-10.21,0-3.03-1.52-5.26-4.04-6.37-2.33-1.11-5.16-1.31-9.2-1.31-4.55,0-6.67.61-8.49,2.12ZM198.38,254.24c0,7.28,4.04,12.34,9.3,12.34,4.35-.1,8.29-3.94,8.29-11.12s-3.94-12.44-9.3-12.44c-4.35,0-8.29,4.15-8.29,11.22Z"/>
  <path class="cls-2" d="M247.42,249.99c2.83-4.65,6.77-9.91,11.53-9.91,3.34,0,5.46,2.43,5.46,4.55,0,1.72-1.01,3.44-2.83,4.35-1.01.4-1.82.3-2.43-.2-1.31-1.42-2.33-1.92-3.84-1.92-2.63,0-6.07,3.24-8.09,8.8v16.58c0,6.27.4,6.88,7.79,7.38v2.63h-21.13v-2.63c6.17-.51,6.77-1.11,6.77-7.28v-19.01c0-6.37-.4-6.67-5.97-7.28v-2.43c4.35-.71,8.29-1.92,12.54-3.84v10.21h.2Z"/>
  <path class="cls-2" d="M269.26,282.25v-2.63c6.07-.51,6.77-1.11,6.77-7.38v-19.31c0-5.56-.2-6.07-6.17-6.88v-2.43c4.75-.81,8.9-2.02,12.74-3.74v32.36c0,6.27.71,6.88,6.77,7.38v2.63h-20.12ZM274.22,227.14c0-2.73,2.12-4.75,4.65-4.75s4.45,2.02,4.45,4.75c0,2.43-1.92,4.65-4.55,4.65-2.43,0-4.55-2.22-4.55-4.65Z"/>
  <path class="cls-2" d="M318.4,263.75h-21.63l1.31-5.26h21.64l-1.32,5.26Z"/>
  <path class="cls-2" d="M374.42,267.59c-.51,2.83-2.53,11.83-3.44,14.66h-42.06v-2.93c7.89-.4,8.59-1.01,8.59-8.9v-37.11c0-7.79-.61-8.29-8.49-8.9v-2.83h24.27v2.83c-7.68.51-8.7,1.01-8.7,8.9v36.5c0,5.06.61,6.88,2.33,7.89,1.82,1.01,5.16,1.21,9.2,1.21,5.16,0,8.29-.51,10.41-2.83,1.72-1.82,3.44-4.65,4.85-9l3.03.51Z"/>
  <path class="cls-2" d="M410.01,283.36c-1.11,0-3.13-.81-4.04-1.72-1.31-1.31-1.92-2.63-2.22-4.25-3.94,2.53-8.29,5.97-11.53,5.97-6.37,0-11.02-5.46-11.02-11.53,0-4.45,2.43-7.68,7.79-9.4,5.66-1.92,12.54-4.55,14.56-6.07v-1.31c0-6.88-3.44-10.72-8.29-10.72-2.02,0-3.54.81-4.45,1.92-1.21,1.31-1.92,3.24-2.83,5.97-.3,1.42-1.31,2.02-2.63,2.02-1.52,0-3.84-1.72-3.84-3.94,0-1.31,1.21-2.43,3.03-3.74,2.33-1.72,8.29-5.36,13.75-6.47,2.73,0,5.66.81,7.58,2.53,3.03,2.73,4.04,6.47,4.04,11.22v17.69c0,4.25,1.62,5.66,3.34,5.66,1.11,0,2.53-.51,3.44-1.11l1.01,2.73-7.68,4.55ZM403.54,259.7l-9.2,4.15c-3.84,1.62-5.97,3.44-5.97,6.88,0,4.75,3.84,7.08,6.88,7.08,2.63,0,6.47-2.02,8.29-3.74v-14.36Z"/>
  <line class="cls-1" y1="322.1" x2="407.99" y2="322.1"/>
</svg>